<?xml version="1.0" encoding="utf-8"?>
<svg xmlns="http://www.w3.org/2000/svg" width="24" height="24" viewBox="0 0 24 24" fill="none" stroke="#000000" stroke-width="2" stroke-linecap="round" stroke-linejoin="round" class="lucide lucide-link-icon lucide-link">
  <g transform="matrix(1, 0, 0, 1, -8.366024, 5.915506)">
    <path d="M 18.366 7.084 C 20.191 9.523 23.753 9.779 25.906 7.624 L 28.906 4.624 C 31.58 1.856 30.254 -2.769 26.52 -3.7 C 24.847 -4.118 23.077 -3.643 21.836 -2.446 L 20.116 -0.736" style="stroke-width: 4px; stroke: rgb(255, 255, 255);"/>
    <path d="M 22.366 5.084 C 20.542 2.646 16.979 2.39 14.826 4.544 L 11.826 7.544 C 9.152 10.313 10.478 14.938 14.213 15.869 C 15.886 16.287 17.656 15.812 18.896 14.614 L 20.606 12.904" style="stroke-width: 4px; stroke: rgb(255, 255, 255);"/>
  </g>
  <path d="M10 13a5 5 0 0 0 7.54.54l3-3a5 5 0 0 0-7.07-7.07l-1.72 1.71"/>
  <path d="M14 11a5 5 0 0 0-7.54-.54l-3 3a5 5 0 0 0 7.07 7.07l1.71-1.71"/>
</svg>